<svg width="29" height="36" viewBox="0 0 29 36" fill="none" xmlns="http://www.w3.org/2000/svg">
<path d="M26.5894 21.1865L28.9694 6.56149C29.1413 5.50554 28.5666 4.5 27.7912 4.5H8.01568L7.5542 1.3493C7.43921 0.563977 6.94439 0 6.37038 0H1.20833C0.540981 0 0 0.755508 0 1.6875V2.8125C0 3.74449 0.540981 4.5 1.20833 4.5H4.72675L8.26354 28.6478C7.41741 29.3273 6.84722 30.6015 6.84722 32.0625C6.84722 34.2371 8.10953 36 9.66667 36C11.2238 36 12.4861 34.2371 12.4861 32.0625C12.4861 30.9604 12.1615 29.9647 11.6391 29.25H22.1942C21.6718 29.9647 21.3472 30.9604 21.3472 32.0625C21.3472 34.2371 22.6095 36 24.1667 36C25.7238 36 26.9861 34.2371 26.9861 32.0625C26.9861 30.5035 26.3372 29.1563 25.3962 28.5184L25.674 26.8115C25.8458 25.7555 25.2711 24.75 24.4957 24.75H10.9816L10.6521 22.5H25.4111C25.9753 22.5 26.4644 21.9548 26.5894 21.1865Z" fill="url(#paint0_linear)"/>
<defs>
<linearGradient id="paint0_linear" x1="14.5" y1="0" x2="14.5" y2="36" gradientUnits="userSpaceOnUse">
<stop/>
<stop offset="0.0001" stop-color="#67B398" stop-opacity="0.579365"/>
<stop offset="0.453125" stop-color="#50B2B8" stop-opacity="0.833333"/>
<stop offset="1" stop-color="#9DB850" stop-opacity="0"/>
</linearGradient>
</defs>
</svg>
