<svg width="28" height="28" viewBox="0 0 28 28" fill="none" xmlns="http://www.w3.org/2000/svg">
<path d="M24.5349 17.5H10.2848L10.6029 19.25H23.651C24.3997 19.25 24.9546 20.0321 24.7887 20.8534L24.5205 22.181C25.4291 22.6772 26.0556 23.725 26.0556 24.9375C26.0556 26.6439 24.8151 28.0243 23.2933 27.9997C21.8436 27.9762 20.6513 26.6527 20.6121 25.0221C20.5907 24.1314 20.9079 23.3241 21.4289 22.7499H11.2377C11.7422 23.3059 12.0556 24.0803 12.0556 24.9375C12.0556 26.6773 10.766 28.0783 9.20354 27.9966C7.81618 27.9241 6.68787 26.663 6.61495 25.1027C6.55866 23.8977 7.12226 22.8356 7.97854 22.2816L4.56376 3.5H1.16667C0.522327 3.5 0 2.91238 0 2.1875V1.3125C0 0.587617 0.522327 0 1.16667 0H6.15072C6.70493 0 7.18263 0.438648 7.29371 1.04945L7.73928 3.5H26.8329C27.5815 3.5 28.1364 4.28208 27.9705 5.10338L25.6725 16.4784C25.5518 17.0759 25.0796 17.5 24.5349 17.5ZM19.8333 9.1875H17.5V7C17.5 6.51673 17.1518 6.125 16.7222 6.125H15.9444C15.5149 6.125 15.1667 6.51673 15.1667 7V9.1875H12.8333C12.4038 9.1875 12.0556 9.57922 12.0556 10.0625V10.9375C12.0556 11.4208 12.4038 11.8125 12.8333 11.8125H15.1667V14C15.1667 14.4833 15.5149 14.875 15.9444 14.875H16.7222C17.1518 14.875 17.5 14.4833 17.5 14V11.8125H19.8333C20.2629 11.8125 20.6111 11.4208 20.6111 10.9375V10.0625C20.6111 9.57922 20.2629 9.1875 19.8333 9.1875Z" fill="#67B398" fill-opacity="0.579365"/>
</svg>
