<svg width="18" height="20" viewBox="0 0 18 20" fill="none" xmlns="http://www.w3.org/2000/svg">
<path d="M15.7724 12.5H6.61163L6.81616 13.75H15.2042C15.6855 13.75 16.0422 14.3086 15.9356 14.8953L15.7632 15.8436C16.3473 16.198 16.75 16.9464 16.75 17.8125C16.75 19.0313 15.9525 20.0173 14.9743 19.9998C14.0423 19.983 13.2758 19.0376 13.2507 17.8729C13.2369 17.2367 13.4408 16.6601 13.7758 16.25H7.22425C7.54853 16.6471 7.75 17.2002 7.75 17.8125C7.75 19.0552 6.921 20.0559 5.91656 19.9976C5.02469 19.9458 4.29934 19.045 4.25247 17.9305C4.21628 17.0698 4.5786 16.3112 5.12906 15.9154L2.93384 2.5H0.75C0.335781 2.5 0 2.08027 0 1.5625V0.9375C0 0.419726 0.335781 0 0.75 0H3.95403C4.31031 0 4.61741 0.31332 4.68881 0.749609L4.97525 2.5H17.2497C17.731 2.5 18.0877 3.05863 17.981 3.64527L16.5038 11.7703C16.4262 12.1971 16.1226 12.5 15.7724 12.5ZM12.75 6.5625H11.25V5C11.25 4.6548 11.0262 4.375 10.75 4.375H10.25C9.97385 4.375 9.75 4.6548 9.75 5V6.5625H8.25C7.97385 6.5625 7.75 6.8423 7.75 7.1875V7.8125C7.75 8.15769 7.97385 8.4375 8.25 8.4375H9.75V10C9.75 10.3452 9.97385 10.625 10.25 10.625H10.75C11.0262 10.625 11.25 10.3452 11.25 10V8.4375H12.75C13.0262 8.4375 13.25 8.15769 13.25 7.8125V7.1875C13.25 6.8423 13.0262 6.5625 12.75 6.5625Z" fill="#67B398" fill-opacity="0.579365"/>
</svg>
