<svg width="21" height="18" viewBox="0 0 21 18" fill="none" xmlns="http://www.w3.org/2000/svg">
<path d="M18.75 0H2.25C1.00734 0 0 0.863437 0 1.92857V16.0714C0 17.1366 1.00734 18 2.25 18H18.75C19.9927 18 21 17.1366 21 16.0714V1.92857C21 0.863437 19.9927 0 18.75 0ZM4.40625 15.4286C4.07658 15.4286 3.7942 15.2328 3.72113 14.9614L3.01809 12.3498C2.98102 12.2121 3.00158 12.0676 3.07619 11.9416C3.15079 11.8156 3.27469 11.716 3.42623 11.6603L6.70739 10.455C6.84755 10.4035 7.00344 10.3925 7.15156 10.4236C7.29967 10.4547 7.43199 10.5262 7.52855 10.6274L8.98153 12.1495C11.2758 11.2269 13.1205 9.62397 14.1744 7.69854L12.3985 6.45312C12.2805 6.37035 12.197 6.25694 12.1608 6.12999C12.1245 6.00303 12.1374 5.86941 12.1974 5.74927L13.6037 2.93685C13.6686 2.80696 13.7848 2.70076 13.9318 2.63681C14.0788 2.57287 14.2474 2.55524 14.4081 2.58702L17.4549 3.18962C17.6099 3.22023 17.7481 3.29496 17.8471 3.4016C17.9461 3.50825 18 3.6405 18 3.77679C18 10.2171 11.9088 15.4286 4.40625 15.4286Z" fill="#67B398" fill-opacity="0.579365"/>
</svg>
