<svg width="40" height="30" viewBox="0 0 40 30" fill="none" xmlns="http://www.w3.org/2000/svg">
<path d="M20 0C8.95161 0 0 6.71371 0 15C0 23.2863 8.95161 30 20 30C31.0484 30 40 23.2863 40 15C40 6.71371 31.0484 0 20 0ZM31.6129 16.6935C31.6129 17.0927 31.1774 17.4194 30.6452 17.4194H23.2258V22.9839C23.2258 23.3831 22.7903 23.7097 22.2581 23.7097H17.7419C17.2097 23.7097 16.7742 23.3831 16.7742 22.9839V17.4194H9.35484C8.82258 17.4194 8.3871 17.0927 8.3871 16.6935V13.3065C8.3871 12.9073 8.82258 12.5806 9.35484 12.5806H16.7742V7.01613C16.7742 6.61694 17.2097 6.29032 17.7419 6.29032H22.2581C22.7903 6.29032 23.2258 6.61694 23.2258 7.01613V12.5806H30.6452C31.1774 12.5806 31.6129 12.9073 31.6129 13.3065V16.6935Z" fill="#50B2B8" fill-opacity="0.833333"/>
</svg>
