<svg width="15" height="20" viewBox="0 0 15 20" fill="none" xmlns="http://www.w3.org/2000/svg">
<path d="M9.35 12.8571C12.675 12.8571 15 10.2028 15 6.3871C15 2.57143 12.675 0 9.35 0H2.96875C2.70988 0 2.5 0.239866 2.5 0.535714V9.76036H0.46875C0.209883 9.76036 0 10.0002 0 10.2961V12.3214C0 12.6173 0.209883 12.8571 0.46875 12.8571H2.5V14.2857H0.46875C0.209883 14.2857 0 14.5256 0 14.8214V16.6071C0 16.903 0.209883 17.1429 0.46875 17.1429H2.5V19.4643C2.5 19.7601 2.70988 20 2.96875 20H5.25625C5.51512 20 5.725 19.7601 5.725 19.4643V17.1429H12.0312C12.2901 17.1429 12.5 16.903 12.5 16.6071V14.8214C12.5 14.5256 12.2901 14.2857 12.0312 14.2857H5.725V12.8571H9.35ZM5.725 3.06911H8.8C10.625 3.06911 11.725 4.36866 11.725 6.3871C11.725 8.43317 10.625 9.76036 8.75 9.76036H5.725V3.06911Z" fill="#4F4F4F"/>
</svg>
