<svg width="30" height="36" viewBox="0 0 30 36" fill="none" xmlns="http://www.w3.org/2000/svg">
<path d="M21 21.375C19.0781 21.375 18.154 22.5 15 22.5C11.846 22.5 10.9286 21.375 9 21.375C4.03125 21.375 0 25.6078 0 30.825V32.625C0 34.4883 1.43973 36 3.21429 36H26.7857C28.5603 36 30 34.4883 30 32.625V30.825C30 25.6078 25.9688 21.375 21 21.375ZM26.7857 32.625H3.21429V30.825C3.21429 27.4781 5.8125 24.75 9 24.75C9.97768 24.75 11.5647 25.875 15 25.875C18.4621 25.875 20.0156 24.75 21 24.75C24.1875 24.75 26.7857 27.4781 26.7857 30.825V32.625ZM15 20.25C20.3237 20.25 24.6429 15.7148 24.6429 10.125C24.6429 4.53516 20.3237 0 15 0C9.67634 0 5.35714 4.53516 5.35714 10.125C5.35714 15.7148 9.67634 20.25 15 20.25ZM15 3.375C18.5424 3.375 21.4286 6.40547 21.4286 10.125C21.4286 13.8445 18.5424 16.875 15 16.875C11.4576 16.875 8.57143 13.8445 8.57143 10.125C8.57143 6.40547 11.4576 3.375 15 3.375Z" fill="url(#paint0_radial)"/>
<defs>
<radialGradient id="paint0_radial" cx="0" cy="0" r="1" gradientUnits="userSpaceOnUse" gradientTransform="translate(15 18) rotate(90) scale(18 15)">
<stop stop-color="#4F4F4F"/>
<stop offset="0.671875" stop-opacity="0.854167"/>
<stop offset="1" stop-opacity="0"/>
</radialGradient>
</defs>
</svg>
